<svg xmlns="http://www.w3.org/2000/svg" fill-rule="evenodd" clip-rule="evenodd" image-rendering="optimizeQuality" shape-rendering="geometricPrecision" text-rendering="geometricPrecision" viewBox="0 0 1707 1707" id="Chip"><defs><linearGradient id="a" x1="426.307" x2="1280.35" y1="68.016" y2="1638.65" gradientUnits="userSpaceOnUse"><stop offset="0" stop-color="#309bc0" class="stopColor401379 svgShape"></stop><stop offset=".502" stop-color="#5c04be" class="stopColor8a0b92 svgShape"></stop><stop offset="1" stop-color="#7306ec" class="stopColorec067f svgShape"></stop></linearGradient></defs><path fill="url(#a)" d="M1253 1406l-215 0 0 88 127 0c11,0 20,9 20,20l0 63c67,18 60,129 -20,129 -79,0 -86,-109 -21,-129 0,-13 1,-28 1,-43l-127 0c-11,0 -20,-9 -20,-20l0 -108 -125 0 0 171c67,18 60,129 -20,129 -79,0 -86,-111 -20,-129l0 -171 -124 0 0 108c0,11 -9,20 -20,20l-128 0c0,15 1,30 1,43 66,20 59,129 -21,129 -79,0 -86,-111 -20,-129l0 -63c0,-11 9,-20 20,-20l128 0 0 -88 -215 0c-85,0 -154,-69 -154,-154l0 -205 -65 0 0 128c0,11 -9,20 -20,20l-64 0c-7,25 -28,46 -63,46 -87,0 -87,-132 0,-132 35,0 56,21 63,46l44 0 0 -128c0,-11 9,-20 20,-20l85 0 0 -124 -149 0c-7,25 -28,46 -63,46 -87,0 -87,-132 0,-132 35,0 56,21 63,46l149 0 0 -125 -85 0c-11,0 -20,-9 -20,-20l0 -127c-15,0 -31,1 -44,1 -8,24 -28,45 -63,45 -87,0 -87,-132 0,-132 35,0 56,20 63,46l64 0c11,0 20,9 20,20l0 127 65 0 0 -223c0,-85 69,-154 154,-154l215 0 0 -88 -128 0c-11,0 -20,-9 -20,-20l0 -63c-66,-19 -59,-130 20,-130 80,0 87,111 20,130l0 43 128 0c11,0 20,9 20,20l0 108 124 0 0 -171c-66,-19 -59,-130 20,-130 80,0 87,111 20,130l0 171 125 0 0 -108c0,-11 9,-20 20,-20l127 0c0,-15 -1,-30 -1,-44 -65,-19 -58,-129 21,-129 80,0 87,111 20,130l0 63c0,11 -9,20 -20,20l-127 0 0 88 215 0c84,0 154,69 154,154l0 223 65 0 0 -127c0,-11 9,-20 20,-20l64 0c7,-26 28,-46 62,-46 87,0 87,132 0,132 -34,0 -55,-21 -62,-46l-44 0 0 127c0,11 -9,20 -20,20l-85 0 0 125 149 0c7,-25 28,-46 62,-46 87,0 87,132 0,132 -34,0 -55,-21 -62,-46l-149 0 0 124 85 0c11,0 20,9 20,20l0 128c15,0 31,-2 44,-1 7,-25 28,-45 62,-45 87,0 87,132 0,132 -34,0 -55,-21 -62,-46l-64 0c-11,0 -20,-9 -20,-20l0 -128 -65 0 0 205c0,85 -70,154 -154,154zm-1165 -881c-34,0 -34,52 0,52 35,0 35,-52 0,-52zm0 624c-34,0 -34,52 0,52 35,0 35,-52 0,-52zm0 -312c-34,0 -34,52 0,52 35,0 35,-52 0,-52zm1530 312c-34,0 -34,52 0,52 35,0 35,-52 0,-52zm0 -624c-34,0 -34,52 0,52 35,0 35,-52 0,-52zm0 312c-34,0 -34,52 0,52 35,0 35,-52 0,-52zm-1077 777c-34,0 -34,52 0,52 35,0 35,-52 0,-52zm624 0c-34,0 -34,52 0,52 35,0 35,-52 0,-52zm-312 0c-34,0 -34,52 0,52 35,0 35,-52 0,-52zm312 -1574c-34,0 -34,52 0,52 35,0 35,-52 0,-52zm-624 0c-34,0 -34,52 0,52 35,0 35,-52 0,-52zm312 0c-34,0 -34,52 0,52 35,0 35,-52 0,-52zm-14 1186l0 -345 -82 0c-11,0 -20,-9 -20,-20l0 -108c-38,-7 -67,-37 -76,-74l-182 0 0 507c0,22 19,40 41,40l141 0 0 -108c-45,-9 -78,-49 -78,-96 0,-54 44,-99 98,-99 54,0 99,45 99,99 0,47 -34,87 -79,96l0 108 138 0zm40 -345l0 150 348 0 0 -510c0,-22 -18,-41 -41,-41l-147 0 0 273c51,10 90,55 90,108 0,61 -49,110 -110,110 -53,0 -98,-39 -108,-90l-32 0zm0 190l0 155 307 0c23,0 41,-18 41,-40l0 -115 -348 0zm-102 -318l0 88 134 0c9,-44 44,-79 88,-88l0 -273 -479 0 0 0c-22,0 -41,18 -41,41l0 118 181 0c8,-46 49,-81 97,-81 54,0 98,45 98,99 0,47 -33,87 -78,96zm242 39c-91,0 -91,139 0,139 92,0 92,-139 0,-139zm-338 171c-77,0 -77,117 0,117 77,0 77,-117 0,-117zm76 -365c-77,0 -77,117 0,117 77,0 77,-117 0,-117zm429 669l-666 0c-44,0 -81,-37 -81,-81l0 -665c0,-45 37,-81 81,-81l666 0c45,0 81,36 81,81l0 665c0,44 -36,81 -81,81zm-732 -926c-63,0 -114,51 -114,114l0 797c0,63 51,114 114,114l799 0c62,0 114,-51 114,-114l0 -797c0,-63 -52,-114 -114,-114l-799 0z"></path></svg>