<svg xmlns="http://www.w3.org/2000/svg" data-name="line gradient flaticon" viewBox="0 0 64 64" id="Compass"><defs><linearGradient id="a" x1="4" x2="60" y1="32" y2="32" gradientUnits="userSpaceOnUse"><stop offset="0" stop-color="#309bc0" class="stopColorff81ff svgShape"></stop><stop offset="1" stop-color="#5c04be" class="stopColora93aff svgShape"></stop></linearGradient></defs><path fill="url(#a)" d="M52.45917,15.54529h-2.9599a3.00317,3.00317,0,0,0-2.99994,2.99994v1.79095h-12.943L32.69885,18.39A7.00665,7.00665,0,0,0,29.3266,9.28748l.00012-1.49695a2.98982,2.98982,0,0,0-5.97937.00012V9.28406a7.00635,7.00635,0,0,0-3.37982,9.1051l-.85687,1.946H8.99994A5.00581,5.00581,0,0,0,4,25.33514v1.26075a1,1,0,0,0,1.99994,0V25.33514a3.00322,3.00322,0,0,1,3-2.99993h9.23022L10.5575,39.76263a3.59009,3.59009,0,1,0,6.57263,2.89057l3.07672-7.00226a12.55269,12.55269,0,0,0,3.43738,1.25836,2.53477,2.53477,0,0,0,2.51605,2.7049,2.57882,2.57882,0,0,0,2.8656-2.74561,14.12845,14.12845,0,0,0,3.41492-1.27081L35.54,42.64832a3.59029,3.59029,0,0,0,6.57452-2.88672L34.43744,22.33618H46.49933v2.67963a1.00008,1.00008,0,0,0,1.99994,0V18.54523a1.001,1.001,0,0,1,1-1h2.9599a5.54638,5.54638,0,0,1,5.54,5.54V46.66608A7.42694,7.42694,0,0,0,52.548,44.28015H48.49927V29.01575a1.00006,1.00006,0,0,0-1.99994.00006V45.27527a.99794.99794,0,0,0,.999,1.00488H52.548A5.4632,5.4632,0,0,1,56.398,55.57593,5.38156,5.38156,0,0,1,52.548,57.16962H16.96991s.00354-8.96277.00354-8.97248a2.02291,2.02291,0,0,0-2-2.001H5.99994V30.59583A1.0001,1.0001,0,0,0,4,30.59589V47.19513a1.1343,1.1343,0,0,0,.293.708L15.26184,58.87592a1.01,1.01,0,0,0,.7077.29364H52.548a7.48359,7.48359,0,0,0,7.451-7.44428l.00006-28.64007A7.5486,7.5486,0,0,0,52.45917,15.54529ZM25.34729,7.79053a.98986.98986,0,0,1,1.97949.00006v.89062a6.43211,6.43211,0,0,0-1.97949-.001Zm.98633,2.81146c6.56439.20886,6.56286,9.72754-.00012,9.93536C19.76849,20.32867,19.77,10.80975,26.33362,10.602ZM15.29913,41.84857a1.59028,1.59028,0,0,1-2.91156-1.27936c.02613-.05938,8.89807-20.21087,8.89807-20.21087a6.97714,6.97714,0,0,0,2.6839,1.7572ZM27.026,37.09766c.01056.72436-1.39789.71746-1.38183.00006V35.30078c-.01063-.7243,1.39788-.71734,1.38183,0Zm13.25708,3.46771a1.59033,1.59033,0,0,1-2.9082,1.28711L31.2652,27.95325a1.00016,1.00016,0,0,0-1.83106.80475l2.1994,5.00335a12.547,12.547,0,0,1-2.65454,1.075c-.461-2.75763-4.871-2.7315-5.29144.0362a10.56046,10.56046,0,0,1-2.67273-1.06031l4.96185-11.293a3.99627,3.99627,0,0,0,.718-.00019l1.12964,2.569a1.00008,1.00008,0,0,0,1.83093-.80468l-.95373-2.16925a6.97652,6.97652,0,0,0,2.67926-1.75525ZM14.97052,55.75555l-7.557-7.55944h7.55994Zm11.3631-37.25427a2.93179,2.93179,0,0,0-.00012-5.86322A2.93179,2.93179,0,0,0,26.33362,18.50128Zm0-3.86322a.93171.93171,0,0,1-.00006,1.86322A.93171.93171,0,0,1,26.33362,14.63806Z"></path></svg>