<svg xmlns="http://www.w3.org/2000/svg" xmlns:xlink="http://www.w3.org/1999/xlink" viewBox="0 0 64 64" id="robot-arm"><defs><linearGradient id="a" x1="5.335" x2="52.533" y1="10.665" y2="57.863" gradientUnits="userSpaceOnUse"><stop offset="0" stop-color="#662d91"></stop><stop offset=".437" stop-color="#3873b3"></stop><stop offset="1" stop-color="#00c9dd"></stop></linearGradient><linearGradient id="b" x2="47.198" y1="16" y2="63.198" xlink:href="#a"></linearGradient><linearGradient id="c" x1="5.5" x2="52.698" y1="10.5" y2="57.698" xlink:href="#a"></linearGradient><linearGradient id="d" x1="-10.5" x2="36.698" y1="26.5" y2="73.698" xlink:href="#a"></linearGradient><linearGradient id="e" x1="-6" x2="41.198" y1="22" y2="69.198" xlink:href="#a"></linearGradient><linearGradient id="f" x1="-4" x2="43.198" y1="20" y2="67.198" xlink:href="#a"></linearGradient></defs><path fill="url(#a)" d="M37 53h-6V41a5.957 5.957 0 0 0-1.151-3.519L19.511 20.554a6.918 6.918 0 0 0 .247-.758l24.254-8.4-.825 1.772a1.972 1.972 0 0 0 .126 1.9A1.992 1.992 0 0 0 45 16h2v2h-2a1 1 0 0 0-1 1v3a1 1 0 0 0-.707.293l-3 3a1 1 0 0 0-.207 1.113l4 9A1 1 0 0 0 45 36h3a1 1 0 0 0 1-1V24h2v11a1 1 0 0 0 1 1h3a1 1 0 0 0 .914-.594l4-9a1 1 0 0 0-.207-1.113l-3-3A1 1 0 0 0 56 22v-3a1 1 0 0 0-1-1h-2v-2h1.867a1.994 1.994 0 0 0 1.985-2.239l-.86-6.812a1 1 0 0 0-.361-.651l-4.483-3.647a2.005 2.005 0 0 0-3.294.5l-.58 1.249-4.138-2.485-30.313 9.094A6.989 6.989 0 0 0 9.411 24L19 41.259V45H8v8H6v7H2v2h60v-2H37Zm10-27h-2v2h2v1h-1v2h1v3h-1.35l-3.457-7.778L44.414 24H47Zm10.807.222L54.35 34H53v-3h1v-2h-1v-1h2v-2h-2v-2h2.586ZM54 22h-8v-2h8Zm-3-4h-2v-2h2ZM49.671 4a1.028 1.028 0 0 0 .147.148l4.24 3.452.809 6.4-2.843.005c-.009 0-.016-.005-.024-.005h-4c-.02 0-.038.01-.058.012H45l1.037-2.228 1.525.915a3.487 3.487 0 1 0 3.588-5.98L49 5.434Zm.451 4.439a1.487 1.487 0 0 1-1.531 2.55L45.114 8.9 19.98 17.6a7 7 0 0 0-3.428-5.624l26.312-7.891ZM8 18a5 5 0 0 1 10 0 4.936 4.936 0 0 1-.635 2.388l-.219.133.078.127A4.989 4.989 0 0 1 8 18Zm5 7a6.986 6.986 0 0 0 5.355-2.5l7.7 12.6A5.923 5.923 0 0 0 25 35a6 6 0 0 0-5.353 3.305l-7.417-13.35A7 7 0 0 0 13 25Zm8 16a4 4 0 0 1 8 0v12h-8V41Zm-11 6h9v6h-9ZM8 60v-5h27v5Z"></path><path fill="url(#b)" d="M25 44a3 3 0 1 0-3-3 3 3 0 0 0 3 3Zm0-4a1 1 0 1 1-1 1 1 1 0 0 1 1-1Z"></path><path fill="url(#c)" d="M13 21a3 3 0 1 0-3-3 3 3 0 0 0 3 3Zm0-4a1 1 0 1 1-1 1 1 1 0 0 1 1-1Z"></path><path fill="url(#d)" d="M11 48h2v2h-2z"></path><path fill="url(#e)" d="M22 50h2v2h-2z"></path><path fill="url(#f)" d="M26 50h2v2h-2z"></path></svg>